<?xml version="1.0" encoding="UTF-8"?>
<svg id="Layer_2" xmlns="http://www.w3.org/2000/svg" version="1.1" viewBox="0 0 497.2 577.4">
  <!-- Generator: Adobe Illustrator 29.3.1, SVG Export Plug-In . SVG Version: 2.1.0 Build 151)  -->
  <defs>
    <style>
      .st0 {
        fill: #151515;
      }

      .st0, .st1 {
        stroke: #151515;
        stroke-miterlimit: 10;
        stroke-width: 30px;
      }

      .st1 {
        fill: #fff;
      }
    </style>
  </defs>
  <path class="st0" d="M35.6,93.5c-9.5,0-17.2,7.5-17.5,17-1.3,47.2-4.3,180.4.5,238.3,11.8,142.9,93.2,213.6,241.9,213.6s221.4-49.3,221.4-215.2,0-45.4,0-53.3c2.4-275.4-340.7-244.6-340.7-67.6v-115.3c0-9.6-7.8-17.5-17.5-17.5H35.6Z"/>
  <path class="st1" d="M35.6,18.4c-9.5,0-17.2,7.5-17.5,17-1.3,47.2-6.7,180.7.5,238.3,12.4,99.2,93.2,194.2,241.9,194.2s209.1-39.3,221.4-195.8c.8-10.1,0-45.4,0-53.3,2.4-275.4-340.7-244.6-340.7-67.6V35.8c0-9.6-7.8-17.5-17.5-17.5H35.6Z"/>
</svg>